#N canvas 742 719 257 233 10;
#X msg 37 99 off;
#X obj 37 185 s kmt-casting;
#X msg 66 99 on;
#X obj 37 145 list prepend arduino;
#X obj 37 37 inlet ctrl;
#X obj 37 67 sel 0 1;
#X connect 0 0 3 0;
#X connect 2 0 3 0;
#X connect 3 0 1 0;
#X connect 4 0 5 0;
#X connect 5 0 0 0;
#X connect 5 1 2 0;
