#N canvas 70 66 980 798 10;
#N canvas 83 116 907 738 gemwin 0;
#X obj 11 31 cnv 15 120 78 empty empty render… 5 10 0 14 -233017
-66577 0;
#X obj 20 78 hradio 20 1 0 3 empty empty off/lo-res/hi-res 0 -8 0 10
-191407 -258113 -1 0;
#X obj 20 125 sel 0 1 2;
#X msg 20 218 0 \, destroy;
#X obj 20 307 gemwin;
#X obj 19 351 gemhead;
#X obj 19 381 ortho;
#X obj 37 150 t b b;
#X obj 54 173 t b b;
#X msg 37 238 border 1 \, dimen 800 600 \, frame 50 \, create \, 1
;
#X msg 54 258 border 0 \, offset 1280 0 \, dimen 3840 1080 \, frame
50 \, create \, 1;
#X obj 19 444 separator;
#X obj 159 444 separator;
#X obj 19 545 translateXYZ -2 0 0;
#X obj 159 545 translateXYZ 2 0 0;
#X obj 19 613 outlet gemlist_mon1;
#X obj 159 614 outlet gemlist_mon2;
#X obj 19 411 t a a a;
#X obj 320 446 s kmt-casting-gl_rec;
#X obj 230 48 loadbang;
#X obj 230 73 delay 5000;
#X connect 1 0 2 0;
#X connect 2 0 3 0;
#X connect 2 1 7 0;
#X connect 2 2 8 0;
#X connect 3 0 4 0;
#X connect 5 0 6 0;
#X connect 6 0 17 0;
#X connect 7 0 9 0;
#X connect 7 1 3 0;
#X connect 8 0 10 0;
#X connect 8 1 3 0;
#X connect 9 0 4 0;
#X connect 10 0 4 0;
#X connect 11 0 13 0;
#X connect 12 0 14 0;
#X connect 13 0 15 0;
#X connect 14 0 16 0;
#X connect 17 0 11 0;
#X connect 17 1 12 0;
#X connect 17 2 18 0;
#X connect 19 0 20 0;
#X connect 20 0 10 0;
#X coords 0 -1 1 1 122 102 1 10 10;
#X restore 42 35 pd gemwin;
#N canvas 70 273 984 614 control 0;
#X obj 11 31 cnv 15 320 80 empty \$0-cnv control 5 10 0 14 -233017
-66577 0;
#X obj 140 55 bng 30 250 50 0 \$0-b1-snd \$0-b1-rcv button1 -10 40
0 14 -228856 -258113 -1;
#X obj 210 55 bng 30 250 50 0 \$0-b2-snd \$0-b2-rcv button2 -10 40
0 14 -228856 -258113 -1;
#N canvas 421 540 450 300 send-to-audio 0;
#X obj 26 16 inlet ctrl;
#X obj 26 127 netsend 1;
#X obj 26 87 prepend send;
#X obj 168 27 loadbang;
#X msg 168 80 connect localhost 6666;
#X obj 26 54 prepend audio;
#X obj 57 158 sel 0;
#X obj 26 206 print kmt-cst connected;
#X obj 57 184 delay 5;
#X connect 0 0 5 0;
#X connect 1 0 6 0;
#X connect 1 0 7 0;
#X connect 2 0 1 0;
#X connect 3 0 4 0;
#X connect 4 0 1 0;
#X connect 5 0 2 0;
#X connect 6 0 8 0;
#X connect 8 0 4 0;
#X restore 864 147 pd send-to-audio;
#X obj 868 226 netreceive 6667 1;
#X obj 868 247 list trim;
#X obj 611 298 comport /dev/ttyACM0;
#X obj 611 40 loadbang;
#X msg 611 233 open 0;
#X obj 611 359 select 48 49;
#X text 680 194 arduino;
#X msg 363 144 1;
#X msg 397 143 2;
#X obj 363 172 prepend arduino;
#X obj 27 58 bng 20 250 50 0 \$0-start-snd \$0-start-rcv start 25 10
0 14 -228856 -258113 -1;
#X obj 27 78 bng 20 250 50 0 \$0-stop-snd \$0-stop-rcv stop 25 10 0
14 -228856 -258113 -1;
#X obj 516 488 outlet start;
#X obj 268 203 r \$0-stop-snd;
#X obj 268 230 t b b;
#X obj 48 260 t b b;
#X msg 75 285 fade_time 500;
#X obj 48 173 loadbang;
#X msg 295 255 stop;
#X obj 868 270 s kmt-casting;
#X text 866 181 from/to audio;
#X obj 611 407 s \$0-b1-rcv;
#X obj 645 387 s \$0-b2-rcv;
#X obj 363 199 s kmt-casting;
#X obj 363 46 r \$0-b1-snd;
#X obj 397 94 r \$0-b2-snd;
#X obj 48 455 s kmt-casting;
#X text 32 485 catchall - ie. \, default messages that will be sent
to all existing elements. taylored settings for specific elements should
be sent later.;
#X obj 48 383 list append dest;
#X obj 611 326 speedlim 100;
#X obj 766 38 r kmt-casting;
#X obj 280 55 tgl 30 0 \$0-out1-snd \$0-out1-rcv out1 0 40 0 14 -228856
-258113 -1 0 1;
#X obj 726 260 + 51;
#X obj 611 67 t b b b;
#X obj 690 110 delay 1000;
#X obj 611 110 delay 2000;
#X obj 766 68 list trim;
#X obj 363 67 kmt-casting-time 200;
#X obj 397 115 kmt-casting-time 200;
#X msg 338 256 audio stop;
#X obj 338 282 s kmt-casting;
#X obj 815 124 s \$0-start-rcv;
#X obj 766 149 route out1;
#X msg 690 132 1;
#X msg 611 132 0;
#X obj 766 103 route arduino start audio;
#X obj 766 179 s \$0-out1-rcv;
#X obj 726 235 r \$0-out1-snd;
#X obj 516 458 r \$0-start-snd;
#X msg 672 234 close;
#X msg 48 319 ringbuffer \, vid01 \, vid_2_01 \, vid_2_02 \, pic_2_01
\, vid_2_03 \, vid_2_04 \, vid_2_05 \, vid_1_01 \, vid_1_02 \, vid_1_03
\, vid_1_04 \, pic_1_01 \, vid_1_05 \, vid_1_06 \, vid02 \, vid03;
#X obj 823 366 print record;
#X obj 540 110 delay 5000;
#X obj 540 154 s \$0-start-rcv;
#X connect 4 0 5 0;
#X connect 5 0 23 0;
#X connect 6 0 33 0;
#X connect 7 0 37 0;
#X connect 8 0 6 0;
#X connect 9 0 25 0;
#X connect 9 1 26 0;
#X connect 11 0 13 0;
#X connect 12 0 13 0;
#X connect 13 0 27 0;
#X connect 17 0 18 0;
#X connect 18 0 54 0;
#X connect 18 1 22 0;
#X connect 18 1 43 0;
#X connect 19 0 54 0;
#X connect 19 1 20 0;
#X connect 20 0 32 1;
#X connect 21 0 19 0;
#X connect 22 0 32 1;
#X connect 28 0 41 0;
#X connect 29 0 42 0;
#X connect 32 0 30 0;
#X connect 33 0 9 0;
#X connect 34 0 40 0;
#X connect 36 0 6 0;
#X connect 37 0 56 0;
#X connect 37 1 38 0;
#X connect 37 1 39 0;
#X connect 37 2 8 0;
#X connect 38 0 47 0;
#X connect 39 0 48 0;
#X connect 40 0 49 0;
#X connect 41 0 11 0;
#X connect 42 0 12 0;
#X connect 43 0 44 0;
#X connect 46 0 50 0;
#X connect 46 0 55 0;
#X connect 47 0 50 0;
#X connect 48 0 50 0;
#X connect 49 0 46 0;
#X connect 49 1 45 0;
#X connect 49 2 3 0;
#X connect 51 0 36 0;
#X connect 52 0 16 0;
#X connect 53 0 6 0;
#X connect 54 0 32 0;
#X connect 56 0 57 0;
#X coords 0 -1 1 1 322 102 1 10 10;
#X restore 278 33 pd control;
#X obj 375 1504 pix_texture;
#N canvas 136 141 548 516 ringbuffer 0;
#X obj 11 29 cnv 15 198 78 empty empty ringbuffer 8 12 0 14 -233017
-66577 0;
#X obj 17 56 tgl 20 0 \$0-rec-snd \$0-rec-rcv record 25 10 0 14 -228856
-258113 -1 0 1;
#X obj 20 81 hsl 180 20 0 4500 0 0 \$0-buf_pos-snd \$0-buf_pos-rcv
position 55 10 0 14 -228856 -258113 -1 0 1;
#X obj 20 468 outlet gemlist;
#X obj 158 182 r \$0-what;
#X obj 284 144 sel 0 1;
#X msg 284 172 off;
#X msg 322 172 rec;
#X obj 284 198 s \$0-what;
#X obj 327 351 r \$0-frame;
#X msg 327 376 set \$1;
#X obj 327 405 s \$0-buf_pos-rcv;
#X obj 284 115 r \$0-rec-snd;
#X obj 158 205 symbol;
#N canvas 363 485 725 446 buffer 0;
#X obj 18 19 inlet gemlist;
#X obj 231 126 i;
#X obj 231 155 t f f;
#X obj 358 172 + 1;
#X obj 358 198 t f f;
#X obj 373 220 r \$0-buf_size;
#X obj 358 272 sel 1;
#X obj 358 245 >=;
#X obj 231 189 s \$0-frame;
#X obj 18 315 pix_buffer_write casting;
#X obj 358 296 outlet done;
#X msg 480 93 allocate 1920 1080 3;
#X obj 480 37 loadbang;
#X obj 480 69 t b b;
#X obj 494 123 r \$0-buf_size;
#X msg 494 146 resize \$1;
#X obj 219 19 inlet rec;
#X obj 231 222 r \$0-frame;
#X obj 18 142 pix_video;
#X obj 480 170 pix_buffer casting 4500;
#X obj 18 240 pix_yuv;
#X msg 620 93 4500;
#X obj 620 120 s \$0-buf_size;
#X text 15 351 captures video from camera to the ringbuffer;
#X obj 246 76 sel 1;
#X msg 246 102 0;
#X obj 219 47 t f f;
#X obj 246 285 pix_texture;
#X obj 18 170 t a a;
#X obj 246 321 outlet;
#X obj 18 274 t a b;
#X obj 18 206 spigot;
#X connect 0 0 18 0;
#X connect 1 0 2 0;
#X connect 2 0 8 0;
#X connect 2 1 3 0;
#X connect 3 0 4 0;
#X connect 4 0 7 0;
#X connect 4 1 1 1;
#X connect 5 0 7 1;
#X connect 6 0 10 0;
#X connect 7 0 6 0;
#X connect 11 0 19 0;
#X connect 12 0 13 0;
#X connect 13 0 11 0;
#X connect 13 1 21 0;
#X connect 14 0 15 0;
#X connect 16 0 26 0;
#X connect 17 0 9 1;
#X connect 18 0 28 0;
#X connect 20 0 30 0;
#X connect 21 0 22 0;
#X connect 24 0 25 0;
#X connect 25 0 1 1;
#X connect 26 0 31 1;
#X connect 26 1 24 0;
#X connect 27 0 29 0;
#X connect 28 0 31 0;
#X connect 28 1 27 0;
#X connect 30 0 9 0;
#X connect 30 1 1 0;
#X connect 31 0 20 0;
#X restore 20 370 pd buffer;
#X msg 142 422 off;
#X obj 142 447 s \$0-what;
#X obj 216 446 s \$0-rec-rcv;
#X msg 216 421 set 0;
#X obj 285 90 s \$0-rec-rcv;
#X msg 351 284 start_rec;
#X msg 264 284 stop_recplay;
#X obj 429 301 prepend audio;
#X obj 429 330 s kmt-casting;
#X obj 158 229 select off rec;
#X obj 20 201 r kmt-casting-gl_rec;
#X obj 285 11 r kmt-casting;
#X obj 285 34 list trim;
#X obj 285 62 route record;
#X obj 158 331 outlet rec;
#X msg 158 255 0;
#X msg 198 256 1;
#X obj 20 311 pix_separator;
#X obj 20 231 separator;
#X obj 20 264 translateXYZ 2 0 0;
#X connect 4 0 13 0;
#X connect 5 0 6 0;
#X connect 5 1 7 0;
#X connect 6 0 8 0;
#X connect 7 0 8 0;
#X connect 9 0 10 0;
#X connect 10 0 11 0;
#X connect 12 0 5 0;
#X connect 13 0 24 0;
#X connect 14 0 3 0;
#X connect 14 1 15 0;
#X connect 14 1 18 0;
#X connect 15 0 16 0;
#X connect 18 0 17 0;
#X connect 20 0 22 0;
#X connect 21 0 22 0;
#X connect 22 0 23 0;
#X connect 24 0 21 0;
#X connect 24 0 30 0;
#X connect 24 1 20 0;
#X connect 24 1 31 0;
#X connect 25 0 33 0;
#X connect 26 0 27 0;
#X connect 27 0 28 0;
#X connect 28 0 19 0;
#X connect 30 0 14 1;
#X connect 30 0 29 0;
#X connect 31 0 14 1;
#X connect 31 0 29 0;
#X connect 32 0 14 0;
#X connect 33 0 34 0;
#X connect 34 0 32 0;
#X coords 0 -1 1 1 200 100 1 10 10;
#X restore 624 35 pd ringbuffer;
#X msg 106 352 0;
#X msg 170 352 1;
#X obj 42 369 demux 0 1;
#X obj 42 421 kmt-casting-vid vid_2_01 3 0;
#X obj 42 218 kmt-casting-vid vid01 3 -1;
#X obj 375 1564 rectangle 2 4;
#X obj 42 703 kmt-casting-img pic_2_01 0 90;
#X obj 42 843 kmt-casting-vid vid_2_03 3 0;
#X obj 42 953 kmt-casting-vid vid_2_04 3 0;
#X obj 235 674 t b b;
#X msg 253 699 1;
#X obj 235 813 t b b;
#X msg 253 839 0;
#X obj 42 1063 kmt-casting-ringbuffer 0 0;
#X obj 42 1173 kmt-casting-vid vid_2_05 3 0;
#X obj 42 1313 pix_texture;
#X obj 42 1371 rectangle 2 4;
#X obj 376 421 kmt-casting-vid vid_1_01 3 0;
#X obj 376 561 kmt-casting-vid vid_1_02 3 0;
#X obj 376 781 kmt-casting-vid vid_1_04 3 0;
#X obj 376 923 kmt-casting-img pic_1_01 0 90;
#X obj 376 1063 kmt-casting-vid vid_1_05 3 0;
#X obj 376 1173 kmt-casting-vid vid_1_06 3 0;
#X obj 376 1393 kmt-casting-vid vid_1_07 3 0;
#X msg 258 1273 start;
#X obj 258 1299 s kmt-casting;
#X msg 597 1493 start;
#X obj 597 1519 s kmt-casting;
#X obj 376 671 kmt-casting-vid vid_1_03 3 0;
#X msg 253 865 arduino out1 \$1;
#X msg 253 888 record \$1;
#X obj 253 917 s kmt-casting;
#X obj 42 561 kmt-casting-vid vid_2_02 3 0;
#X obj 569 895 t b b;
#X msg 587 920 1;
#X obj 569 1034 t b b;
#X msg 587 1060 0;
#X msg 587 1086 arduino out1 \$1;
#X msg 587 1109 record \$1;
#X obj 587 1138 s kmt-casting;
#X text 150 192 innen;
#X text 71 387 zu zweit;
#X text 392 388 alleine;
#X text 600 199 außen;
#X obj 278 148 s start;
#X obj 235 193 r start;
#X obj 42 145 s gemlist-innen;
#X obj 157 145 s gemlist-außen;
#X obj 42 191 r gemlist-innen;
#X obj 498 202 r gemlist-außen;
#X obj 106 328 t b b;
#X obj 170 328 t b b;
#N canvas 277 111 622 617 außen 0;
#X obj 26 22 inlet gemlist;
#X obj 172 27 inlet control;
#X obj 26 390 pix_film;
#X obj 92 392 t b;
#X msg 71 365 0;
#X obj 208 56 r kmt-casting-ringbuffer;
#X obj 208 79 sel 0 1;
#X msg 208 104 vid03;
#X obj 172 140 symbol;
#X msg 172 276 symbol vid02.avi;
#X msg 207 296 symbol vid03.avi;
#X msg 73 330 open /home/thoralf/Baustelle/kmt-casting/media/\$1 \,
auto 1;
#X obj 26 514 pix_texture;
#X obj 26 564 rectangle 2 4;
#X msg 59 250 0;
#X msg 96 250 1;
#X obj 399 29 inlet from_rec;
#X obj 517 31 inlet rec;
#X obj 517 66 sel 0 1;
#X msg 252 105 play;
#X msg 290 106 rec;
#X obj 172 166 sel vid02 vid03 play rec;
#X obj 26 278 demux 0 1 2;
#X msg 133 250 2;
#X obj 399 263 spigot;
#X obj 399 512 pix_texture;
#X msg 468 234 1;
#X msg 432 234 0;
#X connect 0 0 22 0;
#X connect 1 0 8 0;
#X connect 2 0 12 0;
#X connect 2 2 3 0;
#X connect 3 0 4 0;
#X connect 4 0 2 1;
#X connect 5 0 6 0;
#X connect 6 0 7 0;
#X connect 6 1 19 0;
#X connect 7 0 8 0;
#X connect 8 0 21 0;
#X connect 9 0 11 0;
#X connect 10 0 11 0;
#X connect 11 0 2 0;
#X connect 12 0 13 0;
#X connect 14 0 22 1;
#X connect 15 0 22 1;
#X connect 16 0 24 0;
#X connect 17 0 18 0;
#X connect 18 0 7 0;
#X connect 18 1 20 0;
#X connect 19 0 8 0;
#X connect 20 0 8 0;
#X connect 21 0 9 0;
#X connect 21 0 14 0;
#X connect 21 0 27 0;
#X connect 21 1 10 0;
#X connect 21 1 14 0;
#X connect 21 1 27 0;
#X connect 21 2 15 0;
#X connect 21 2 26 0;
#X connect 21 3 23 0;
#X connect 21 3 26 0;
#X connect 22 0 2 0;
#X connect 23 0 22 1;
#X connect 24 0 25 0;
#X connect 25 0 13 0;
#X connect 26 0 24 1;
#X connect 27 0 24 1;
#X restore 498 370 pd außen;
#X obj 593 237 r start;
#X msg 593 345 vid02;
#X msg 543 345 vid03;
#X obj 376 1283 kmt-casting-ringbuffer 0 0;
#X obj 105 1339 s kmt-casting-innen;
#X obj 438 1530 s kmt-casting-innen;
#X connect 0 0 50 0;
#X connect 0 1 51 0;
#X connect 1 0 48 0;
#X connect 2 0 9 0;
#X connect 2 1 62 0;
#X connect 3 0 56 2;
#X connect 3 1 56 3;
#X connect 4 0 6 1;
#X connect 5 0 6 1;
#X connect 6 0 7 0;
#X connect 6 1 21 0;
#X connect 7 0 36 0;
#X connect 7 1 36 1;
#X connect 7 2 36 1;
#X connect 7 3 36 1;
#X connect 8 0 6 0;
#X connect 8 1 54 0;
#X connect 8 2 55 0;
#X connect 10 0 11 0;
#X connect 10 3 15 0;
#X connect 11 0 12 0;
#X connect 11 1 12 1;
#X connect 11 2 12 1;
#X connect 11 3 12 1;
#X connect 12 0 17 0;
#X connect 12 1 17 1;
#X connect 12 2 17 1;
#X connect 12 3 17 1;
#X connect 13 0 10 1;
#X connect 13 1 14 0;
#X connect 14 0 33 0;
#X connect 14 0 34 0;
#X connect 15 0 11 1;
#X connect 15 1 16 0;
#X connect 16 0 33 0;
#X connect 16 0 34 0;
#X connect 17 0 18 0;
#X connect 17 1 18 1;
#X connect 17 2 18 1;
#X connect 17 3 18 1;
#X connect 18 0 19 0;
#X connect 18 1 28 0;
#X connect 18 2 28 0;
#X connect 18 3 28 0;
#X connect 19 0 20 0;
#X connect 19 1 61 0;
#X connect 21 0 22 0;
#X connect 21 1 22 1;
#X connect 21 2 22 1;
#X connect 21 3 22 1;
#X connect 22 0 32 0;
#X connect 22 1 32 1;
#X connect 22 2 32 1;
#X connect 22 3 32 1;
#X connect 23 0 24 0;
#X connect 23 1 37 0;
#X connect 23 2 37 0;
#X connect 23 3 37 0;
#X connect 24 0 25 0;
#X connect 24 3 39 0;
#X connect 25 0 26 0;
#X connect 25 1 26 1;
#X connect 25 2 26 1;
#X connect 25 3 26 1;
#X connect 26 0 60 0;
#X connect 26 1 60 1;
#X connect 26 2 60 1;
#X connect 26 3 60 1;
#X connect 27 0 2 0;
#X connect 27 1 30 0;
#X connect 27 2 30 0;
#X connect 27 3 30 0;
#X connect 28 0 29 0;
#X connect 30 0 31 0;
#X connect 32 0 23 0;
#X connect 32 1 23 1;
#X connect 32 2 23 1;
#X connect 32 3 23 1;
#X connect 33 0 35 0;
#X connect 34 0 35 0;
#X connect 36 0 10 0;
#X connect 36 1 13 0;
#X connect 36 2 13 0;
#X connect 36 3 13 0;
#X connect 37 0 24 1;
#X connect 37 1 38 0;
#X connect 38 0 41 0;
#X connect 38 0 42 0;
#X connect 39 0 25 1;
#X connect 39 1 40 0;
#X connect 40 0 41 0;
#X connect 40 0 42 0;
#X connect 41 0 43 0;
#X connect 42 0 43 0;
#X connect 49 0 8 1;
#X connect 52 0 8 0;
#X connect 53 0 56 0;
#X connect 54 0 4 0;
#X connect 54 0 59 0;
#X connect 54 1 7 1;
#X connect 55 0 5 0;
#X connect 55 0 59 0;
#X connect 55 1 21 1;
#X connect 57 0 58 0;
#X connect 58 0 56 1;
#X connect 59 0 56 1;
#X connect 60 0 27 0;
#X connect 60 3 27 1;
