#N canvas 81 226 1020 628 10;
#X obj 22 137 inlet gemlist;
#X obj 264 18 inlet live;
#X obj 22 330 demux 0 1;
#X obj 22 505 outlet gemlist;
#X obj 73 355 separator;
#N canvas 347 427 492 337 fade 0;
#X obj 16 19 inlet gemlist;
#X obj 16 197 scaleXYZ 0 0 1;
#X obj 143 165 line 0 20;
#X obj 16 238 colorRGB 1 1 1 0;
#X obj 16 295 outlet gemlist;
#X obj 188 107 r \$0-fade_time;
#X obj 143 136 pack f f;
#X obj 143 21 inlet start/stop;
#X connect 0 0 1 0;
#X connect 1 0 3 0;
#X connect 2 0 1 1;
#X connect 2 0 1 2;
#X connect 2 0 3 4;
#X connect 3 0 4 0;
#X connect 5 0 6 1;
#X connect 6 0 2 0;
#X connect 7 0 6 0;
#X restore 73 388 pd fade;
#X obj 294 290 delay;
#X obj 475 57 loadbang;
#X obj 294 251 spigot;
#X obj 327 219 != 0;
#X obj 440 18 r \$0-fade_time;
#X obj 440 160 * 2;
#X obj 440 183 +;
#X obj 73 435 pix_image;
#X obj 11 27 cnv 15 198 80 \$0-cnv-snd \$0-cnv-rcv .tif 8 12 0 14 -233017
-66577 0;
#X obj 124 33 tgl 20 0 \$0-live-snd \$0-live-rcv live 30 12 0 20 -228856
-258113 -1 0 1;
#X obj 57 80 bng 20 250 50 0 \$0-btn1-snd \$0-btn1-rcv btn1 -18 -10
0 16 -233017 -258699 -1;
#X obj 122 80 bng 20 250 50 0 \$0-btn2-snd \$0-btn2-rcv btn2 -18 -10
0 16 -233017 -258699 -1;
#X obj 187 80 bng 20 250 50 0 \$0-time-snd \$0-time-rcv time -18 -10
0 16 -233017 -258699 -1;
#X obj 748 135 route 1 2;
#X obj 527 289 r \$0-btn1-snd;
#X obj 642 289 r \$0-btn2-snd;
#X obj 639 349 loadbang;
#X msg 264 40 1;
#X obj 475 127 i \$3;
#X text 21 525 display a tiff image when live \, arguments: name (w/o
extension) / allow skip (1: button1 \, 2: button2 \, 3: both) / time
to display (0=inf.);
#X obj 639 372 i \$2;
#X msg 527 314 1;
#X msg 642 315 2;
#X obj 604 389 &;
#X obj 577 340 t f f;
#X msg 321 185 stop;
#X obj 740 582 outlet time;
#X obj 577 582 outlet btn1;
#X obj 659 582 outlet btn2;
#X obj 792 480 s \$0-timer_off;
#N canvas 216 457 359 473 gui 0;
#X obj 105 109 & 1;
#X obj 38 18 inlet active_buttons;
#X obj 172 109 & 2;
#X obj 38 107 i \$3;
#X obj 38 175 sel 0;
#X msg 71 206 13;
#X msg 38 206 22;
#X msg 38 237 10 13 \$1;
#X obj 38 334 prepend \$0;
#X obj 105 80 i \$2;
#X obj 38 133 t f b;
#X msg 199 267 set btn2;
#X msg 132 267 set btn1;
#X obj 105 133 t f b;
#X msg 65 267 set time;
#X obj 172 133 t f b;
#X obj 38 308 prepend foobar;
#X msg 38 363 \; \$1-\$2-rcv color \$3 \$4 \$5;
#X obj 255 81 symbol \$1;
#X obj 255 133 s \$0-cnv-rcv;
#X msg 255 106 label \$1.tif;
#X connect 0 0 13 0;
#X connect 1 0 3 0;
#X connect 1 0 9 0;
#X connect 1 0 18 0;
#X connect 2 0 15 0;
#X connect 3 0 10 0;
#X connect 4 0 6 0;
#X connect 4 1 5 0;
#X connect 5 0 7 0;
#X connect 6 0 7 0;
#X connect 7 0 16 0;
#X connect 8 0 17 0;
#X connect 9 0 0 0;
#X connect 9 0 2 0;
#X connect 10 0 4 0;
#X connect 10 1 14 0;
#X connect 11 0 16 0;
#X connect 12 0 16 0;
#X connect 13 0 4 0;
#X connect 13 1 12 0;
#X connect 14 0 16 0;
#X connect 15 0 4 0;
#X connect 15 1 11 0;
#X connect 16 0 8 0;
#X connect 18 0 20 0;
#X connect 20 0 19 0;
#X restore 505 90 pd gui;
#X obj 583 133 s \$0-fade_time;
#X obj 583 76 route \$1 arduino;
#X obj 165 383 symbol \$1;
#X obj 583 110 route fade_time stop;
#X obj 641 155 t b;
#X obj 641 179 s \$0-timer_off;
#X obj 773 160 s \$0-btn2-rcv;
#X obj 748 180 s \$0-btn1-rcv;
#X obj 749 291 r \$0-time-snd;
#X obj 264 61 s \$0-live-rcv;
#X obj 294 137 r \$0-live-snd;
#X obj 294 330 s \$0-time-rcv;
#X obj 727 504 s \$0-live-rcv;
#X obj 165 181 r \$0-live-snd;
#X obj 641 225 s \$0-live-rcv;
#X obj 583 49 list trim;
#X obj 294 160 sel 1;
#X obj 335 161 r \$0-timer_off;
#X msg 641 203 0;
#X msg 727 480 0;
#X obj 475 160 * 1000;
#X msg 749 405 3;
#X obj 577 551 route 1 2 3;
#X obj 73 289 delay;
#X obj 100 262 r \$0-fade_time;
#X msg 73 309 0;
#X obj 577 527 i;
#X obj 577 507 delay;
#X obj 604 486 r \$0-fade_time;
#X obj 577 414 spigot;
#X obj 577 451 t b f b;
#X obj 165 353 sel 1;
#X obj 73 229 sel 0;
#X obj 582 19 r kmt-casting;
#X obj 748 110 spigot;
#X obj 781 85 r \$0-live-rcv;
#X text 43 173 gemlist - pcture;
#X text 295 103 self-timer;
#X text 725 43 aduino;
#X text 793 378 messy management;
#X msg 165 405 open /home/ausstellung/kmt-casting/media/\$1.tif;
#X connect 0 0 2 0;
#X connect 1 0 23 0;
#X connect 2 0 3 0;
#X connect 2 1 4 0;
#X connect 4 0 5 0;
#X connect 5 0 13 0;
#X connect 6 0 48 0;
#X connect 7 0 24 0;
#X connect 7 0 36 0;
#X connect 8 0 6 0;
#X connect 9 0 8 1;
#X connect 10 0 11 0;
#X connect 11 0 12 0;
#X connect 12 0 6 1;
#X connect 13 0 3 0;
#X connect 19 0 44 0;
#X connect 19 1 43 0;
#X connect 20 0 27 0;
#X connect 21 0 28 0;
#X connect 22 0 26 0;
#X connect 23 0 46 0;
#X connect 24 0 9 0;
#X connect 24 0 57 0;
#X connect 26 0 29 1;
#X connect 27 0 30 0;
#X connect 28 0 30 0;
#X connect 29 0 66 1;
#X connect 30 0 66 0;
#X connect 30 1 29 0;
#X connect 31 0 6 0;
#X connect 38 0 40 0;
#X connect 38 1 71 0;
#X connect 39 0 77 0;
#X connect 40 0 37 0;
#X connect 40 1 41 0;
#X connect 41 0 42 0;
#X connect 41 0 55 0;
#X connect 45 0 58 0;
#X connect 47 0 53 0;
#X connect 50 0 5 1;
#X connect 50 0 68 0;
#X connect 50 0 69 0;
#X connect 52 0 38 0;
#X connect 53 0 8 0;
#X connect 53 1 31 0;
#X connect 54 0 31 0;
#X connect 55 0 51 0;
#X connect 56 0 49 0;
#X connect 57 0 12 1;
#X connect 58 0 67 0;
#X connect 59 0 33 0;
#X connect 59 1 34 0;
#X connect 59 2 32 0;
#X connect 60 0 62 0;
#X connect 61 0 60 1;
#X connect 62 0 2 1;
#X connect 63 0 59 0;
#X connect 64 0 63 0;
#X connect 65 0 64 1;
#X connect 66 0 67 0;
#X connect 67 0 64 0;
#X connect 67 1 63 1;
#X connect 67 2 56 0;
#X connect 67 2 35 0;
#X connect 68 0 39 0;
#X connect 69 0 60 0;
#X connect 69 1 2 1;
#X connect 70 0 52 0;
#X connect 71 0 19 0;
#X connect 72 0 71 1;
#X connect 77 0 13 0;
#X coords 0 -1 1 1 200 100 1 10 10;
