#N canvas -27 50 967 649 10;
#X obj 22 137 inlet gemlist;
#X obj 264 18 inlet live;
#X obj 22 270 demux 0 1;
#X obj 22 675 outlet gemlist;
#X obj 73 355 separator;
#N canvas 521 522 492 337 fade 0;
#X obj 16 19 inlet gemlist;
#X obj 16 197 scaleXYZ 0 0 1;
#X obj 143 165 line 0 20;
#X obj 16 238 colorRGB 1 1 1 0;
#X obj 16 295 outlet gemlist;
#X obj 188 107 r \$0-fade_time;
#X obj 143 136 pack f f;
#X obj 143 21 inlet start/stop;
#X connect 0 0 1 0;
#X connect 1 0 3 0;
#X connect 2 0 1 1;
#X connect 2 0 1 2;
#X connect 2 0 3 4;
#X connect 3 0 4 0;
#X connect 5 0 6 1;
#X connect 6 0 2 0;
#X connect 7 0 6 0;
#X restore 73 388 pd fade;
#X obj 435 27 loadbang;
#X obj 11 27 cnv 15 198 80 \$0-cnv-snd \$0-cnv-rcv vid01.avi 8 12 0
14 -233017 -66577 0;
#X obj 124 33 tgl 20 0 \$0-live-snd \$0-live-rcv live 30 12 0 20 -228856
-258113 -1 0 1;
#X obj 57 80 bng 20 250 50 0 \$0-btn1-snd \$0-btn1-rcv btn1 -18 -10
0 16 -233017 -258699 -258699;
#X obj 122 80 bng 20 250 50 0 \$0-btn2-snd \$0-btn2-rcv btn2 -18 -10
0 16 -233017 -258699 -1;
#X obj 187 80 bng 20 250 50 0 \$0-cont-snd \$0-cont-rcv cont -18 -10
0 16 -233017 -258699 -258699;
#X obj 818 135 route 1 2;
#X obj 527 269 r \$0-btn1-snd;
#X obj 642 269 r \$0-btn2-snd;
#X obj 781 319 loadbang;
#X msg 264 40 1;
#X obj 639 372 i \$2;
#X msg 527 294 1;
#X msg 642 295 2;
#X obj 604 389 &;
#X obj 577 320 t f f;
#X obj 577 582 outlet btn1;
#X obj 659 582 outlet btn2;
#N canvas 487 269 359 473 gui 0;
#X obj 105 109 & 1;
#X obj 38 18 inlet active_buttons;
#X obj 172 109 & 2;
#X obj 38 107 i \$3;
#X obj 38 195 sel 0;
#X msg 71 226 13;
#X msg 38 226 22;
#X msg 38 257 10 13 \$1;
#X obj 38 354 prepend \$0;
#X obj 105 80 i \$2;
#X obj 38 133 t f b;
#X msg 199 287 set btn2;
#X msg 132 287 set btn1;
#X obj 105 133 t f b;
#X obj 172 133 t f b;
#X obj 38 328 prepend foobar;
#X msg 38 383 \; \$1-\$2-rcv color \$3 \$4 \$5;
#X obj 255 81 symbol \$1;
#X obj 255 133 s \$0-cnv-rcv;
#X msg 255 106 label \$1.avi;
#X msg 65 287 set cont;
#X obj 38 162 == 0;
#X connect 0 0 13 0;
#X connect 1 0 3 0;
#X connect 1 0 9 0;
#X connect 1 0 17 0;
#X connect 2 0 14 0;
#X connect 3 0 10 0;
#X connect 4 0 6 0;
#X connect 4 1 5 0;
#X connect 5 0 7 0;
#X connect 6 0 7 0;
#X connect 7 0 15 0;
#X connect 8 0 16 0;
#X connect 9 0 0 0;
#X connect 9 0 2 0;
#X connect 10 0 21 0;
#X connect 10 1 20 0;
#X connect 11 0 15 0;
#X connect 12 0 15 0;
#X connect 13 0 4 0;
#X connect 13 1 12 0;
#X connect 14 0 4 0;
#X connect 14 1 11 0;
#X connect 15 0 8 0;
#X connect 17 0 19 0;
#X connect 19 0 18 0;
#X connect 20 0 15 0;
#X connect 21 0 4 0;
#X restore 435 60 pd gui;
#X obj 583 133 s \$0-fade_time;
#X obj 583 76 route \$1 arduino;
#X obj 92 493 symbol \$1;
#X obj 843 160 s \$0-btn2-rcv;
#X obj 818 180 s \$0-btn1-rcv;
#X obj 264 61 s \$0-live-rcv;
#X obj 727 504 s \$0-live-rcv;
#X obj 73 171 r \$0-live-snd;
#X obj 583 49 list trim;
#X msg 727 480 0;
#X msg 748 425 3;
#X obj 577 551 route 1 2 3;
#X obj 73 229 delay;
#X obj 120 202 r \$0-fade_time;
#X msg 73 249 0;
#X obj 577 527 i;
#X obj 577 507 delay;
#X obj 604 486 r \$0-fade_time;
#X obj 577 414 spigot;
#X obj 577 451 t b f b;
#X obj 145 343 sel 1;
#X obj 73 203 sel 0;
#X obj 818 110 spigot;
#X obj 851 85 r \$0-live-rcv;
#X text 725 43 aduino;
#X text 805 446 messy management;
#X text 22 703 gemlist - video;
#X obj 583 110 route fade_time stop frame done;
#X obj 674 133 s \$0-frame;
#X obj 294 177 r \$0-cont-snd;
#X obj 294 237 i \$3;
#X obj 294 264 select -1 0 1;
#X obj 145 394 symbol \$1;
#X obj 748 269 r \$0-cont-snd;
#X msg 454 545 audio stop;
#X obj 740 582 outlet cont;
#X text 23 730 plays an avi movie file when live \, arguments: name
(w/o extension) / allow skip (1: button1 \, 2: button2 \, 3: both)
/ wat do if finished (-1: loop / 0: continue / 1: wait);
#X msg 628 185 audio stop;
#X obj 628 209 s kmt-casting;
#X obj 73 575 pix_film;
#X obj 73 298 t a b;
#X obj 781 352 i \$3;
#X obj 781 375 == 0;
#X obj 748 401 spigot;
#X obj 95 620 unpack f f f;
#X msg 720 185 0;
#X obj 720 209 s \$0-live-rcv;
#X obj 145 365 t b b;
#X obj 294 460 prepend audio;
#X msg 145 420 name \$1;
#X msg 180 315 get_frame;
#X obj 95 646 s \$0-nof;
#N canvas 284 359 324 212 check_frames_for_end 0;
#X obj 15 30 r \$0-frame;
#X obj 15 54 t f f;
#X obj 15 100 spigot;
#X obj 42 78 <;
#X obj 15 162 outlet frame;
#X obj 67 55 r \$0-nof;
#X connect 0 0 1 0;
#X connect 1 0 2 0;
#X connect 1 1 3 0;
#X connect 2 0 4 0;
#X connect 3 0 2 1;
#X connect 5 0 3 1;
#X restore 118 545 pd check_frames_for_end;
#X obj 720 159 s \$0-cont-rcv;
#X msg 294 327 restart;
#X obj 294 482 s kmt-synchro;
#X obj 454 572 s kmt-synchro;
#X obj 583 13 r kmt-synchro;
#X msg 92 519 open /home/ausstellung/kmt-synchro/media/\$1.avi;
#X connect 0 0 2 0;
#X connect 1 0 16 0;
#X connect 2 0 3 0;
#X connect 2 1 65 0;
#X connect 4 0 5 0;
#X connect 5 0 64 0;
#X connect 6 0 24 0;
#X connect 12 0 29 0;
#X connect 12 1 28 0;
#X connect 13 0 18 0;
#X connect 14 0 19 0;
#X connect 15 0 17 0;
#X connect 15 0 66 0;
#X connect 16 0 30 0;
#X connect 17 0 20 1;
#X connect 18 0 21 0;
#X connect 19 0 21 0;
#X connect 20 0 43 1;
#X connect 21 0 43 0;
#X connect 21 1 20 0;
#X connect 26 0 52 0;
#X connect 26 1 47 0;
#X connect 27 0 83 0;
#X connect 32 0 5 1;
#X connect 32 0 45 0;
#X connect 32 0 46 0;
#X connect 33 0 26 0;
#X connect 34 0 31 0;
#X connect 35 0 44 0;
#X connect 36 0 22 0;
#X connect 36 1 23 0;
#X connect 36 2 60 0;
#X connect 37 0 39 0;
#X connect 38 0 37 1;
#X connect 39 0 2 1;
#X connect 40 0 36 0;
#X connect 41 0 40 0;
#X connect 42 0 41 1;
#X connect 43 0 44 0;
#X connect 44 0 41 0;
#X connect 44 1 40 1;
#X connect 44 2 34 0;
#X connect 44 2 59 0;
#X connect 45 0 72 0;
#X connect 46 0 37 0;
#X connect 46 1 2 1;
#X connect 47 0 12 0;
#X connect 48 0 47 1;
#X connect 52 0 25 0;
#X connect 52 1 62 0;
#X connect 52 1 70 0;
#X connect 52 2 53 0;
#X connect 52 3 78 0;
#X connect 54 0 55 0;
#X connect 55 0 56 0;
#X connect 56 0 79 0;
#X connect 57 0 74 0;
#X connect 58 0 68 0;
#X connect 59 0 81 0;
#X connect 62 0 63 0;
#X connect 64 0 3 0;
#X connect 64 1 69 0;
#X connect 65 0 4 0;
#X connect 65 1 75 0;
#X connect 66 0 67 0;
#X connect 67 0 68 1;
#X connect 68 0 35 0;
#X connect 69 0 76 0;
#X connect 70 0 71 0;
#X connect 72 0 57 0;
#X connect 72 1 27 0;
#X connect 73 0 80 0;
#X connect 74 0 73 0;
#X connect 75 0 73 0;
#X connect 77 0 64 1;
#X connect 79 0 73 0;
#X connect 82 0 33 0;
#X connect 83 0 64 0;
#X coords 0 -1 1 1 200 100 1 10 10;
