#N canvas 22 97 823 623 10;
#X obj 47 19 netreceive 6666 1;
#X msg 707 668 \; pd dsp 1;
#X obj 47 41 list trim;
#N canvas 157 270 450 300 send-to-video 0;
#X obj 23 17 inlet ctrl;
#X obj 23 93 prepend video;
#X obj 23 121 prepend send;
#X obj 23 157 netsend 1;
#X obj 180 95 loadbang;
#X msg 180 119 connect localhost 6667;
#X obj 39 181 sel 0;
#X obj 39 209 delay 5;
#X obj 185 19 inlet target;
#X msg 185 63 set \$1;
#X obj 185 40 symbol \$1;
#X obj 23 244 print kmt-synchro-audio connected;
#X connect 0 0 1 0;
#X connect 1 0 2 0;
#X connect 2 0 3 0;
#X connect 3 0 6 0;
#X connect 3 0 11 0;
#X connect 4 0 5 0;
#X connect 5 0 3 0;
#X connect 6 0 7 0;
#X connect 7 0 5 0;
#X connect 8 0 10 0;
#X connect 9 0 1 0;
#X connect 10 0 9 0;
#X restore 332 789 pd send-to-video;
#N canvas 0 0 450 300 (subpatch) 0;
#X array kmt-synchro-audio 641280 float 0;
#X coords 0 1 641279 -1 200 140 1 0 0;
#X restore 50 658 graph;
#X obj 66 308 soundfiler;
#X obj 73 435 * 1000;
#X obj 73 461 / 48000;
#X obj 47 386 i;
#X obj 47 488 pack f f;
#X obj 47 530 line~;
#X obj 332 558 snapshot~;
#X obj 332 346 t b;
#X obj 129 433 r \$0-freq;
#X obj 462 672 /;
#X obj 462 621 *;
#X obj 477 598 r \$0-framerate;
#X obj 477 651 r \$0-freq;
#X msg 462 729 frame \$1;
#X obj 462 698 i;
#X obj 603 648 loadbang;
#X msg 603 681 50;
#X msg 706 711 48000;
#X obj 603 708 s \$0-framerate;
#X obj 706 738 s \$0-freq;
#X obj 65 158 s \$0-target;
#X obj 435 761 r \$0-target;
#X obj 47 69 route audio;
#X obj 144 155 s \$0-stop;
#X obj 86 207 s \$0-stop;
#X obj 119 485 r \$0-stop;
#X obj 66 236 symbol;
#X obj 47 181 t b a b;
#X msg 119 506 0;
#X obj 47 413 t f f;
#X text 132 457 sample frequency - never trust the client;
#X obj 332 581 t f f;
#X obj 332 630 ==;
#X obj 347 605 r \$0-samples;
#X obj 81 332 s \$0-samples;
#X obj 332 660 sel 1;
#X msg 332 706 done;
#X obj 47 100 route name get_frame stop restart;
#X obj 193 123 t b b;
#X obj 217 155 s \$0-restart;
#X obj 80 359 r \$0-restart;
#X text 262 23 plays audio tracks for video patches \, sends frame
number to be displayed to the video patch;
#N canvas 490 442 450 300 (subpatch) 0;
#X array kmt-synchro-rec 672000 float 2;
#X coords 0 1 672000 -1 200 140 1 0 0;
#X restore 446 359 graph;
#X obj 500 291 adc~;
#X msg 603 185 stop;
#X obj 651 260 dac~;
#X msg 476 235 const 0;
#X obj 449 178 t b b;
#X obj 526 182 t b;
#X obj 449 150 route start_rec start_play stop_recplay;
#X obj 526 205 delay 350;
#X obj 449 317 tabwrite~ kmt-synchro-rec;
#X obj 652 234 tabplay~ kmt-synchro-rec;
#X obj 46 572 tabread4~ kmt-synchro-audio;
#X obj 476 258 s kmt-synchro-rec;
#X obj 46 606 dac~;
#X msg 66 258 read -resize /home/ausstellung/kmt-synchro/media/\$1.wav
kmt-synchro-audio;
#X connect 0 0 2 0;
#X connect 2 0 27 0;
#X connect 5 0 8 1;
#X connect 5 0 39 0;
#X connect 6 0 7 0;
#X connect 7 0 9 1;
#X connect 8 0 34 0;
#X connect 9 0 10 0;
#X connect 10 0 11 0;
#X connect 10 0 58 0;
#X connect 11 0 36 0;
#X connect 12 0 11 0;
#X connect 13 0 7 1;
#X connect 14 0 19 0;
#X connect 15 0 14 0;
#X connect 16 0 15 1;
#X connect 17 0 14 1;
#X connect 18 0 3 0;
#X connect 19 0 18 0;
#X connect 20 0 21 0;
#X connect 20 0 22 0;
#X connect 20 0 1 0;
#X connect 21 0 23 0;
#X connect 22 0 24 0;
#X connect 26 0 3 1;
#X connect 27 0 42 0;
#X connect 27 0 54 0;
#X connect 30 0 33 0;
#X connect 31 0 61 0;
#X connect 32 0 8 0;
#X connect 32 1 31 0;
#X connect 32 2 29 0;
#X connect 33 0 10 0;
#X connect 34 0 9 0;
#X connect 34 1 6 0;
#X connect 36 0 37 0;
#X connect 36 1 15 0;
#X connect 37 0 40 0;
#X connect 38 0 37 1;
#X connect 40 0 41 0;
#X connect 41 0 3 0;
#X connect 42 0 25 0;
#X connect 42 0 32 0;
#X connect 42 1 12 0;
#X connect 42 2 28 0;
#X connect 42 3 43 0;
#X connect 43 0 44 0;
#X connect 43 1 28 0;
#X connect 45 0 8 0;
#X connect 48 0 56 0;
#X connect 49 0 56 0;
#X connect 49 0 57 0;
#X connect 51 0 59 0;
#X connect 52 0 56 0;
#X connect 52 1 51 0;
#X connect 53 0 55 0;
#X connect 54 0 52 0;
#X connect 54 1 53 0;
#X connect 54 2 49 0;
#X connect 55 0 57 0;
#X connect 57 0 50 0;
#X connect 57 0 50 1;
#X connect 58 0 60 0;
#X connect 58 0 60 1;
#X connect 61 0 5 0;
