#N canvas 99 77 759 640 10;
#N canvas 156 112 524 471 gemwin 0;
#X obj 11 31 cnv 15 120 78 empty empty render… 5 10 0 14 -233017
-66577 0;
#X obj 20 78 hradio 20 1 0 3 empty empty off/lo-res/hi-res 0 -8 0 10
-191407 -258113 -1 0;
#X obj 20 125 sel 0 1 2;
#X msg 20 218 0 \, destroy;
#X obj 20 307 gemwin;
#X obj 19 351 gemhead;
#X obj 19 381 ortho;
#X obj 37 150 t b b;
#X obj 54 173 t b b;
#X msg 37 238 border 1 \, dimen 800 600 \, frame 50 \, create \, 1
;
#X obj 19 413 outlet gemlist_mon1;
#X msg 54 258 border 0 \, offset 1024 0 \, dimen 1920 1080 \, frame
50 \, create \, 1;
#X obj 167 37 loadbang;
#X obj 167 69 delay 3000;
#X connect 1 0 2 0;
#X connect 2 0 3 0;
#X connect 2 1 7 0;
#X connect 2 2 8 0;
#X connect 3 0 4 0;
#X connect 5 0 6 0;
#X connect 6 0 10 0;
#X connect 7 0 9 0;
#X connect 7 1 3 0;
#X connect 8 0 11 0;
#X connect 8 1 3 0;
#X connect 9 0 4 0;
#X connect 11 0 4 0;
#X connect 12 0 13 0;
#X connect 13 0 11 0;
#X coords 0 -1 1 1 122 102 1 10 10;
#X restore 42 35 pd gemwin;
#X obj 302 1292 pix_texture;
#X obj 302 1321 rectangle 4 4;
#X obj 42 165 kmt-synchro-img pic01 1 0;
#X obj 42 385 kmt-synchro-vid vid01 1 0;
#X obj 495 388 t b b;
#X msg 522 414 start_rec;
#X obj 495 526 t b b;
#X obj 495 668 t b b;
#X msg 522 695 stop_recplay;
#X msg 522 553 stop_recplay \, start_play;
#X obj 522 719 prepend audio;
#X obj 522 744 s kmt-synchro;
#X obj 42 941 s gemlist-cont;
#X obj 235 941 s ctrl-cont;
#X obj 302 240 r gemlist-cont;
#X obj 495 240 r ctrl-cont;
#N canvas 1 117 984 614 control 0;
#X obj 11 31 cnv 15 320 80 empty \$0-cnv control 5 10 0 14 -233017
-66577 0;
#X obj 140 55 bng 30 250 50 0 \$0-b1-snd \$0-b1-rcv button1 -10 40
0 14 -228856 -258113 -1;
#X obj 210 55 bng 30 250 50 0 \$0-b2-snd \$0-b2-rcv button2 -10 40
0 14 -228856 -258113 -1;
#N canvas 325 222 450 300 send-to-audio 0;
#X obj 26 16 inlet ctrl;
#X obj 26 127 netsend 1;
#X obj 26 87 prepend send;
#X obj 168 27 loadbang;
#X msg 168 80 connect localhost 6666;
#X obj 26 54 prepend audio;
#X obj 57 158 sel 0;
#X obj 57 184 delay 5;
#X obj 26 206 print kmt-synchro connected;
#X connect 0 0 5 0;
#X connect 1 0 6 0;
#X connect 1 0 8 0;
#X connect 2 0 1 0;
#X connect 3 0 4 0;
#X connect 4 0 1 0;
#X connect 5 0 2 0;
#X connect 6 0 7 0;
#X connect 7 0 4 0;
#X restore 834 147 pd send-to-audio;
#X obj 838 226 netreceive 6667 1;
#X obj 838 247 list trim;
#X obj 581 298 comport /dev/ttyACM0;
#X obj 581 40 loadbang;
#X msg 581 233 open 0;
#X obj 581 359 select 48 49;
#X text 650 194 arduino;
#X msg 363 144 1;
#X msg 397 143 2;
#X obj 363 172 prepend arduino;
#X obj 27 58 bng 20 250 50 0 \$0-start-snd \$0-start-rcv start 25 10
0 14 -228856 -258113 -1;
#X obj 27 78 bng 20 250 50 0 \$0-stop-snd \$0-stop-rcv stop 25 10 0
14 -228856 -258113 -1;
#X obj 516 488 outlet start;
#X obj 268 203 r \$0-stop-snd;
#X obj 268 230 t b b;
#X obj 48 260 t b b;
#X msg 75 285 fade_time 500;
#X obj 48 173 loadbang;
#X msg 295 255 stop;
#X text 836 181 from/to audio;
#X obj 581 407 s \$0-b1-rcv;
#X obj 615 387 s \$0-b2-rcv;
#X obj 363 46 r \$0-b1-snd;
#X obj 397 94 r \$0-b2-snd;
#X text 32 485 catchall - ie. \, default messages that will be sent
to all existing elements. taylored settings for specific elements should
be sent later.;
#X obj 48 383 list append dest;
#X obj 581 326 speedlim 100;
#X obj 280 55 tgl 30 0 \$0-out1-snd \$0-out1-rcv out1 0 40 0 14 -228856
-258113 -1 0 1;
#X obj 696 260 + 51;
#X obj 581 67 t b b b;
#X obj 660 110 delay 1000;
#X obj 581 110 delay 2000;
#X obj 736 68 list trim;
#X msg 338 256 audio stop;
#X obj 785 124 s \$0-start-rcv;
#X obj 736 149 route out1;
#X msg 660 132 1;
#X msg 581 132 0;
#X obj 736 103 route arduino start audio;
#X obj 736 179 s \$0-out1-rcv;
#X obj 696 235 r \$0-out1-snd;
#X obj 516 458 r \$0-start-snd;
#X msg 642 234 close;
#X obj 338 282 s kmt-synchro;
#X obj 48 455 s kmt-synchro;
#X obj 363 199 s kmt-synchro;
#X obj 838 270 s kmt-synchro;
#X obj 363 67 kmt-synchro-time 200;
#X obj 397 116 kmt-synchro-time 200;
#X obj 736 38 r kmt-synchro;
#X msg 48 319 pic01 \, pic02 \, vid01 \, pic04 \, vid02 \, pic05 \,
vid03 \, pic05.5 \, vid04 \, vid06 \, pic07 \, pic08 \, pic09 \, vid05
;
#X obj 523 173 s \$0-start-rcv;
#X connect 4 0 5 0;
#X connect 5 0 50 0;
#X connect 6 0 30 0;
#X connect 7 0 33 0;
#X connect 8 0 6 0;
#X connect 9 0 24 0;
#X connect 9 1 25 0;
#X connect 11 0 13 0;
#X connect 12 0 13 0;
#X connect 13 0 49 0;
#X connect 17 0 18 0;
#X connect 18 0 54 0;
#X connect 18 1 22 0;
#X connect 18 1 37 0;
#X connect 19 0 54 0;
#X connect 19 1 20 0;
#X connect 20 0 29 1;
#X connect 21 0 19 0;
#X connect 22 0 29 1;
#X connect 26 0 51 0;
#X connect 27 0 52 0;
#X connect 29 0 48 0;
#X connect 30 0 9 0;
#X connect 32 0 6 0;
#X connect 33 0 35 0;
#X connect 33 1 34 0;
#X connect 33 2 8 0;
#X connect 34 0 40 0;
#X connect 35 0 41 0;
#X connect 35 0 55 0;
#X connect 36 0 42 0;
#X connect 37 0 47 0;
#X connect 39 0 43 0;
#X connect 40 0 43 0;
#X connect 41 0 43 0;
#X connect 42 0 39 0;
#X connect 42 1 38 0;
#X connect 42 2 3 0;
#X connect 44 0 32 0;
#X connect 45 0 16 0;
#X connect 46 0 6 0;
#X connect 51 0 11 0;
#X connect 52 0 12 0;
#X connect 53 0 36 0;
#X connect 54 0 29 0;
#X coords 0 -1 1 1 322 102 1 10 10;
#X restore 278 33 pd control;
#X obj 366 1016 s ctrl-cont;
#X obj 278 142 t b b;
#X msg 305 167 0;
#X obj 305 191 s been_here;
#X obj 323 748 r been_here;
#X obj 393 993 s been_here;
#X obj 366 948 t b b;
#X msg 393 971 1;
#X obj 396 748 r done_that;
#X obj 302 795 demux 0 1 2;
#X obj 495 795 demux 0 1 2;
#X obj 585 1077 i;
#X obj 624 1077 + 1;
#X obj 585 1127 sel 0 1;
#X obj 585 1156 s ctrl-cont;
#X msg 676 1158 2;
#X obj 676 1182 s done_that;
#X obj 421 1310 s kmt-synchro;
#X msg 421 1285 start;
#X obj 387 192 s repeat_count;
#X obj 600 1029 r repeat_count;
#X obj 585 1101 > 1;
#X obj 644 1109 print count;
#X obj 42 275 kmt-synchro-img pic02 1 5;
#X obj 42 495 kmt-synchro-img pic04 1 10;
#X obj 42 715 kmt-synchro-img pic05 1 10;
#X obj 302 273 kmt-synchro-img pic05.5 1 10;
#X obj 302 837 kmt-synchro-img pic07 1 10;
#X obj 521 837 kmt-synchro-img pic08 1 10;
#X obj 302 1055 kmt-synchro-img pic09 1 10;
#X obj 42 605 kmt-synchro-vid vid02 1 0;
#X obj 42 825 kmt-synchro-vid vid03 1 0;
#X obj 302 414 kmt-synchro-vid vid04 0 0;
#X obj 302 554 kmt-synchro-vid vid06 0 0;
#X obj 302 1168 kmt-synchro-vid vid05 1 0;
#X connect 0 0 3 0;
#X connect 1 0 2 0;
#X connect 3 0 41 0;
#X connect 3 1 41 1;
#X connect 4 0 42 0;
#X connect 4 1 42 1;
#X connect 4 3 42 1;
#X connect 5 0 50 1;
#X connect 5 1 6 0;
#X connect 6 0 11 0;
#X connect 7 0 51 1;
#X connect 7 1 10 0;
#X connect 8 0 28 0;
#X connect 8 1 9 0;
#X connect 9 0 11 0;
#X connect 10 0 11 0;
#X connect 11 0 12 0;
#X connect 15 0 44 0;
#X connect 16 0 44 1;
#X connect 17 0 19 0;
#X connect 19 0 3 1;
#X connect 19 1 20 0;
#X connect 20 0 21 0;
#X connect 20 0 37 0;
#X connect 22 0 27 1;
#X connect 22 0 28 1;
#X connect 24 0 18 0;
#X connect 24 1 25 0;
#X connect 25 0 23 0;
#X connect 26 0 27 1;
#X connect 26 0 28 1;
#X connect 27 0 45 0;
#X connect 27 1 46 0;
#X connect 27 2 47 0;
#X connect 28 0 45 1;
#X connect 28 1 46 1;
#X connect 28 2 47 1;
#X connect 29 0 30 0;
#X connect 29 0 39 0;
#X connect 29 0 40 0;
#X connect 30 0 29 1;
#X connect 31 0 32 0;
#X connect 31 1 33 0;
#X connect 31 1 32 0;
#X connect 33 0 34 0;
#X connect 36 0 35 0;
#X connect 38 0 29 1;
#X connect 39 0 31 0;
#X connect 41 0 4 0;
#X connect 41 1 4 1;
#X connect 41 3 4 1;
#X connect 42 0 48 0;
#X connect 42 1 48 1;
#X connect 42 3 48 1;
#X connect 43 0 49 0;
#X connect 43 1 49 1;
#X connect 43 3 49 1;
#X connect 44 0 50 0;
#X connect 44 1 5 0;
#X connect 44 3 5 0;
#X connect 45 0 47 0;
#X connect 45 1 24 0;
#X connect 45 3 47 1;
#X connect 46 0 47 0;
#X connect 46 1 29 0;
#X connect 46 3 47 1;
#X connect 47 0 52 0;
#X connect 47 1 52 1;
#X connect 47 3 52 1;
#X connect 48 0 43 0;
#X connect 48 1 43 1;
#X connect 48 3 43 1;
#X connect 49 0 13 0;
#X connect 49 1 14 0;
#X connect 49 3 14 0;
#X connect 50 0 51 0;
#X connect 50 3 7 0;
#X connect 51 0 27 0;
#X connect 51 3 8 0;
#X connect 52 0 1 0;
#X connect 52 1 36 0;
#X connect 52 3 36 0;
