#N canvas 205 312 802 613 10;
#X obj 41 23 inlet gemlist;
#X obj 312 214 loadbang;
#X obj 599 19 inlet control;
#X obj 312 246 symbol \$1;
#X obj 274 528 rectangle 4 4;
#X text 92 554 play movie clip … creation arguments: name of the
clip \, framerate;
#X obj 319 335 r \$0-frame;
#X obj 274 160 pix_separator;
#X obj 41 492 text3d;
#X obj 41 169 spigot;
#X obj 74 140 r \$0-debug;
#X obj 648 94 s \$0-debug;
#X obj 41 198 separator;
#X obj 41 229 colorRGB 0 1 0 1;
#X obj 91 441 loadbang;
#X obj 126 359 symbol \$1;
#X msg 91 475 justify left top;
#X obj 80 305 r \$0-frames;
#X obj 57 385 pack f f f s;
#X obj 57 283 r \$0-frame;
#X obj 103 334 f \$2;
#X obj 163 282 loadbang;
#X msg 199 475 6;
#X obj 41 256 translateXYZ -3.8 -3 0;
#X msg 312 282 open /home/thoralf/Baustelle/kmt-greenscreen/media/\$1.avi
;
#X msg 57 411 text \$4.avi - \$3 fps - frame \$1/\$2;
#X obj 163 307 t b b;
#X obj 599 46 route enabled debug frame;
#X obj 697 74 s \$0-frame;
#X obj 41 53 trigger a a b;
#X obj 274 369 pix_film;
#X obj 274 463 pix_texture;
#X obj 485 168 prepend \$1;
#X obj 485 193 prepend audio;
#X obj 485 222 s kmt-greenscreen;
#X obj 485 42 loadbang;
#X obj 485 101 f \$2;
#X obj 296 395 unpack f f f;
#X obj 296 421 s \$0-frames;
#X msg 485 125 framerate \$1;
#X msg 599 119 enabled \$1;
#X msg 405 123 get_frame;
#X obj 485 72 delay 7;
#X obj 568 401 r \$0-frames;
#X obj 548 430 >=;
#X obj 548 340 r \$0-frame;
#X obj 548 466 sel 1;
#X obj 548 492 outlet done;
#X obj 548 372 + 1;
#X connect 0 0 29 0;
#X connect 1 0 3 0;
#X connect 2 0 27 0;
#X connect 3 0 24 0;
#X connect 6 0 30 1;
#X connect 7 0 30 0;
#X connect 9 0 12 0;
#X connect 10 0 9 1;
#X connect 12 0 13 0;
#X connect 13 0 23 0;
#X connect 14 0 16 0;
#X connect 14 0 22 0;
#X connect 15 0 18 3;
#X connect 16 0 8 0;
#X connect 17 0 18 1;
#X connect 18 0 25 0;
#X connect 19 0 18 0;
#X connect 20 0 18 2;
#X connect 21 0 26 0;
#X connect 22 0 8 1;
#X connect 23 0 8 0;
#X connect 24 0 30 0;
#X connect 25 0 8 0;
#X connect 26 0 18 0;
#X connect 26 1 15 0;
#X connect 26 1 20 0;
#X connect 27 0 40 0;
#X connect 27 1 11 0;
#X connect 27 2 28 0;
#X connect 29 0 9 0;
#X connect 29 1 7 0;
#X connect 29 2 41 0;
#X connect 30 0 31 0;
#X connect 30 1 37 0;
#X connect 31 0 4 0;
#X connect 32 0 33 0;
#X connect 33 0 34 0;
#X connect 35 0 42 0;
#X connect 36 0 39 0;
#X connect 37 0 38 0;
#X connect 39 0 32 0;
#X connect 40 0 32 0;
#X connect 41 0 32 0;
#X connect 42 0 36 0;
#X connect 43 0 44 1;
#X connect 44 0 46 0;
#X connect 45 0 48 0;
#X connect 46 0 47 0;
#X connect 48 0 44 0;
