#N canvas 566 645 458 286 10;
#X obj 47 19 netreceive 6666 1;
#X obj 227 23 loadbang;
#X obj 47 88 route audio;
#X msg 227 66 \; pd dsp 1;
#X obj 47 55 list trim;
#X obj 47 140 kmt-greenscreen-audio-play video1 audio1 48000;
#N canvas 99 194 450 300 send-to-video 0;
#X obj 23 17 inlet ctrl;
#X obj 23 43 prepend video;
#X obj 23 71 prepend send;
#X obj 23 107 netsend 1;
#X obj 23 194 print kmt-greenscreen-audio connected;
#X obj 180 35 loadbang;
#X msg 180 59 connect localhost 6667;
#X obj 39 131 sel 0;
#X obj 39 159 delay 5;
#X connect 0 0 1 0;
#X connect 1 0 2 0;
#X connect 2 0 3 0;
#X connect 3 0 4 0;
#X connect 3 0 7 0;
#X connect 5 0 6 0;
#X connect 6 0 3 0;
#X connect 7 0 8 0;
#X connect 8 0 6 0;
#X restore 47 184 pd send-to-video;
#X obj 67 120 kmt-greenscreen-audio-play video2 audio2 48000;
#X text 63 228 plays audio tracks \, sends frame number to be displayed
to the video patch;
#X connect 0 0 4 0;
#X connect 1 0 3 0;
#X connect 2 0 5 0;
#X connect 2 0 7 0;
#X connect 4 0 2 0;
#X connect 5 0 6 0;
#X connect 7 0 6 0;
