#N canvas 21 247 988 623 10;
#N canvas 384 429 560 499 gemwin 0;
#X obj 11 31 cnv 15 120 80 empty empty render… 5 10 0 14 -233017
-66577 0;
#X obj 20 78 hradio 20 1 0 3 empty empty off/lo-res/hi-res 0 -8 0 10
-191407 -258113 -1 2;
#X obj 20 125 sel 0 1 2;
#X msg 20 218 0 \, destroy;
#X obj 20 307 gemwin;
#X obj 19 351 gemhead;
#X obj 19 381 ortho;
#X obj 19 444 outlet gemlist;
#X obj 19 412 alpha;
#X msg 37 238 border 1 \, dimen 800 600 \, frame 25 \, create \, 1
;
#X obj 37 150 t b b;
#X obj 54 173 t b b;
#X msg 54 258 border 0 \, offset 1280 0 \, dimen 1920 1080 \, frame
50 \, create \, 1;
#X obj 289 51 loadbang;
#X obj 289 83 delay 10;
#X msg 289 111 2;
#X msg 339 112 video cam-input enabled 1;
#X obj 339 142 s kmt-greenscreen;
#X connect 1 0 2 0;
#X connect 2 0 3 0;
#X connect 2 1 10 0;
#X connect 2 2 11 0;
#X connect 3 0 4 0;
#X connect 5 0 6 0;
#X connect 6 0 8 0;
#X connect 8 0 7 0;
#X connect 9 0 4 0;
#X connect 10 0 9 0;
#X connect 10 1 3 0;
#X connect 11 0 12 0;
#X connect 11 1 3 0;
#X connect 12 0 4 0;
#X connect 13 0 14 0;
#X connect 14 0 15 0;
#X connect 14 0 16 0;
#X connect 15 0 1 0;
#X connect 16 0 17 0;
#X coords 0 -1 1 1 122 102 1 10 10;
#X restore 32 25 pd gemwin;
#N canvas 267 316 836 589 kmt-greenscreen 0;
#X obj 487 266 inlet gemlist;
#X obj 487 290 pix_video;
#X obj 487 429 pix_texture;
#X obj 487 467 rectangle 4 4;
#X obj 487 387 pix_alpha;
#X obj 13 370 pack f f f;
#X obj 43 315 t b f;
#X obj 13 345 f;
#X obj 82 316 t b f;
#X obj 487 347 alpha;
#X floatatom 546 342 5 0 0 0 - - -;
#X floatatom 584 342 5 0 0 0 - - -;
#X msg 231 111 0.35 1 0.34;
#X obj 487 318 pix_rgba;
#X msg 13 111 0 0.48 0;
#X obj 11 221 cnv 15 430 80 empty empty empty 12 12 0 14 -233017 -66577
0;
#X obj 16 240 hsl 201 15 0 1 0 0 empty \$0-r-low r-low:0 10 8 0 12
-258113 -1 -1 0 1;
#X obj 16 255 hsl 201 15 0 1 0 0 empty \$0-g-low g-low:0.48 10 8 0
12 -4034 -1 -1 9600 1;
#X obj 16 270 hsl 201 15 0 1 0 0 empty \$0-b-low b-low:0 10 8 0 12
-4032 -1 -1 0 1;
#X obj 231 139 unpack f f f;
#X obj 13 70 loadbang;
#X obj 13 137 unpack f f f;
#X obj 231 370 pack f f f;
#X obj 261 315 t b f;
#X obj 231 345 f;
#X obj 300 316 t b f;
#X obj 234 240 hsl 201 15 0 1 0 0 empty \$0-r-high r-high:0.35 10 8
0 12 -258113 -1 -1 7000 1;
#X obj 234 255 hsl 201 15 0 1 0 0 empty \$0-g-high g-high:1 10 8 0
12 -4034 -1 -1 20000 1;
#X obj 234 270 hsl 201 15 0 1 0 0 empty \$0-b-high b-high:0.34 10 8
0 12 -4032 -1 -1 6800 1;
#X msg 231 423 r-high \$1;
#X obj 231 499 prepend \$0;
#X msg 231 444 g-high \$1;
#X msg 231 465 b-high \$1;
#X msg 231 524 \; \$1-\$2 label \$2:\$3;
#X obj 13 499 prepend \$0;
#X msg 13 524 \; \$1-\$2 label \$2:\$3;
#X msg 13 423 r-low \$1;
#X msg 13 445 g-low \$1;
#X msg 13 465 b-low \$1;
#X connect 0 0 1 0;
#X connect 1 0 13 0;
#X connect 2 0 3 0;
#X connect 4 0 2 0;
#X connect 5 0 4 4;
#X connect 6 0 7 0;
#X connect 6 1 5 1;
#X connect 7 0 5 0;
#X connect 8 0 7 0;
#X connect 8 1 5 2;
#X connect 9 0 4 0;
#X connect 10 0 4 1;
#X connect 11 0 4 2;
#X connect 12 0 19 0;
#X connect 13 0 9 0;
#X connect 14 0 21 0;
#X connect 16 0 7 0;
#X connect 16 0 36 0;
#X connect 17 0 6 0;
#X connect 17 0 37 0;
#X connect 18 0 8 0;
#X connect 18 0 38 0;
#X connect 19 0 26 0;
#X connect 19 1 27 0;
#X connect 19 2 28 0;
#X connect 20 0 12 0;
#X connect 20 0 14 0;
#X connect 21 0 16 0;
#X connect 21 1 17 0;
#X connect 21 2 18 0;
#X connect 22 0 4 3;
#X connect 23 0 24 0;
#X connect 23 1 22 1;
#X connect 24 0 22 0;
#X connect 25 0 24 0;
#X connect 25 1 22 2;
#X connect 26 0 24 0;
#X connect 26 0 29 0;
#X connect 27 0 23 0;
#X connect 27 0 31 0;
#X connect 28 0 25 0;
#X connect 28 0 32 0;
#X connect 29 0 30 0;
#X connect 30 0 33 0;
#X connect 31 0 30 0;
#X connect 32 0 30 0;
#X connect 34 0 35 0;
#X connect 36 0 34 0;
#X connect 37 0 34 0;
#X connect 38 0 34 0;
#X coords 0 -1 1 1 432 102 1 10 200;
#X restore 32 465 pd kmt-greenscreen;
#X obj 264 260 kmt-greenscreen-ctl video1 -2 -2;
#X obj 32 168 trigger anything anything anything anything;
#X msg 264 407 video video1 enabled 0;
#X msg 497 407 video video2 enabled 0;
#X obj 497 441 s kmt-greenscreen;
#N canvas 388 191 364 229 background 0;
#X obj 10 18 inlet gemlist;
#X obj 10 46 separator;
#X obj 10 76 color 0 0 0;
#X obj 10 105 rectangle 4 4;
#X text 158 46 no-op :-/;
#X connect 0 0 1 0;
#X connect 1 0 2 0;
#X connect 2 0 3 0;
#X restore 728 380 pd background;
#N canvas 309 537 845 457 control 0;
#X obj 11 31 cnv 15 250 80 empty \$0-cnv control 5 10 0 14 -233017
-66577 0;
#X obj 139 54 bng 30 250 50 0 \$0-b1-snd \$0-b1-rcv button1 -10 40
0 14 -228856 -258113 -1;
#X obj 210 55 bng 30 250 50 0 \$0-b2-snd \$0-b2-rcv button2 -10 40
0 14 -228856 -258113 -1;
#X obj 17 56 tgl 20 0 \$0-debug-snd \$0-debug-rcv debug 25 10 0 14
-228856 -258113 -1 0 1;
#X obj 17 83 tgl 20 0 \$0-overview-snd \$0-overview-rcv overview 25
10 0 14 -228856 -258113 -1 0 1;
#X obj 408 210 s kmt-greenscreen;
#X msg 408 41 video overview \$1;
#X obj 527 96 prepend cam-input;
#X obj 537 116 prepend video1;
#X obj 547 136 prepend video2;
#X obj 527 183 prepend video;
#X obj 557 156 prepend background;
#X obj 527 18 r \$0-debug-snd;
#X obj 408 18 r \$0-overview-snd;
#X obj 385 259 r kmt-greenscreen;
#X obj 385 330 spigot;
#X obj 385 362 print debug;
#X obj 418 297 r \$0-debug-rcv;
#X msg 527 41 debug \$1;
#X obj 271 294 route audio;
#N canvas 425 546 450 300 send-to-audio 0;
#X obj 26 16 inlet ctrl;
#X obj 26 127 netsend 1;
#X obj 26 87 prepend send;
#X obj 168 27 loadbang;
#X msg 168 80 connect localhost 6666;
#X obj 26 206 print kmt-greenscreen-video connected;
#X obj 26 54 prepend audio;
#X obj 57 158 sel 0;
#X obj 57 183 delay 5;
#X connect 0 0 6 0;
#X connect 1 0 5 0;
#X connect 1 0 7 0;
#X connect 2 0 1 0;
#X connect 3 0 4 0;
#X connect 4 0 1 0;
#X connect 6 0 2 0;
#X connect 7 0 8 0;
#X connect 8 0 4 0;
#X restore 271 345 pd send-to-audio;
#X obj 32 313 netreceive 6667 1;
#X obj 32 334 list trim;
#X obj 32 357 s kmt-greenscreen;
#X obj 705 89 comport /dev/ttyACM0;
#X obj 705 41 loadbang;
#X msg 705 64 open 0;
#X obj 705 150 select 48 49;
#X obj 26 262 s kmt-greenscreen;
#X msg 26 177 video2 enabled 0 \, video1 enabled 1;
#X obj 26 235 prepend video;
#X msg 129 207 video1 enabled 0 \, video2 enabled 1;
#X obj 705 121 speedlim 50;
#X obj 739 178 s \$0-b2-rcv;
#X obj 705 198 s \$0-b1-rcv;
#X obj 26 149 r \$0-b1-snd;
#X obj 129 147 r \$0-b2-snd;
#X connect 6 0 5 0;
#X connect 7 0 10 0;
#X connect 8 0 10 0;
#X connect 9 0 10 0;
#X connect 10 0 5 0;
#X connect 11 0 10 0;
#X connect 12 0 18 0;
#X connect 13 0 6 0;
#X connect 14 0 15 0;
#X connect 14 0 19 0;
#X connect 15 0 16 0;
#X connect 17 0 15 1;
#X connect 18 0 7 0;
#X connect 18 0 8 0;
#X connect 18 0 9 0;
#X connect 18 0 11 0;
#X connect 19 0 20 0;
#X connect 21 0 22 0;
#X connect 22 0 23 0;
#X connect 24 0 32 0;
#X connect 25 0 26 0;
#X connect 26 0 24 0;
#X connect 27 0 34 0;
#X connect 27 1 33 0;
#X connect 29 0 30 0;
#X connect 30 0 28 0;
#X connect 31 0 30 0;
#X connect 32 0 27 0;
#X connect 35 0 29 0;
#X connect 36 0 31 0;
#X coords 0 -1 1 1 252 102 1 10 10;
#X restore 430 21 pd control;
#X obj 32 260 kmt-greenscreen-ctl cam-input -2 2;
#X obj 497 260 kmt-greenscreen-ctl video2 2 -2;
#X obj 728 260 kmt-greenscreen-ctl background 2 2;
#X obj 264 380 kmt-greenscreen-clip video1 25;
#X obj 497 380 kmt-greenscreen-clip video2 50;
#X connect 0 0 3 0;
#X connect 2 0 12 0;
#X connect 2 1 12 1;
#X connect 3 0 9 0;
#X connect 3 1 2 0;
#X connect 3 2 10 0;
#X connect 3 3 11 0;
#X connect 4 0 6 0;
#X connect 5 0 6 0;
#X connect 9 0 1 0;
#X connect 10 0 13 0;
#X connect 10 1 13 1;
#X connect 11 0 7 0;
#X connect 12 0 4 0;
#X connect 13 0 5 0;
