#N canvas 222 125 879 678 10;
#X obj 19 21 inlet ctrl;
#X obj 19 47 route \$1;
#N canvas 0 0 450 300 (subpatch) 0;
#X array \$0-audio 4.27544e+06 float 0;
#X coords 0 1 4.27544e+06 -1 200 140 1;
#X restore 482 300 graph;
#X obj 356 27 loadbang;
#X obj 435 70 symbol \$2;
#X obj 435 190 soundfiler;
#X obj 435 219 s \$0-samples;
#X obj 74 171 r \$0-samples;
#X obj 86 277 * 1000;
#X obj 86 303 / 48000;
#X text 152 307 sample frequency;
#X obj 59 221 i;
#X obj 19 163 sel 0 1;
#X msg 19 303 0;
#X obj 59 249 t f f;
#X obj 59 333 pack f f;
#X obj 59 365 line~;
#X obj 58 431 dac~;
#X obj 202 425 snapshot~;
#X obj 84 131 s \$0-framerate;
#X obj 202 131 t b;
#X obj 356 67 f \$3;
#X obj 356 219 s \$0-freq;
#X obj 142 275 r \$0-freq;
#X obj 202 638 outlet frame;
#X obj 58 397 tabread4~ \$0-audio;
#X text 454 491 play audio and send frame-# to be shown to the video
patch. creation arguments: video file \, audio file \, audio sampling
frequency;
#X obj 435 99 prepend \$0;
#X msg 435 126 read -resize /home/thoralf/Baustelle/kmt-greenscreen/media/\$2.wav
\$1-audio;
#X obj 59 194 t b b;
#X obj 453 41 bng 15 250 50 0 empty empty empty 17 7 0 10 -262144 -1
-1;
#X obj 19 76 route enabled framerate get_frame;
#X obj 202 509 /;
#X obj 202 468 *;
#X obj 217 445 r \$0-framerate;
#X obj 217 488 r \$0-freq;
#X msg 202 586 frame \$1;
#X obj 202 613 prepend \$1;
#X obj 202 531 i;
#X obj 202 558 + 1;
#X connect 0 0 1 0;
#X connect 1 0 31 0;
#X connect 3 0 21 0;
#X connect 3 0 4 0;
#X connect 4 0 27 0;
#X connect 5 0 6 0;
#X connect 7 0 11 1;
#X connect 8 0 9 0;
#X connect 9 0 15 1;
#X connect 11 0 14 0;
#X connect 12 0 13 0;
#X connect 12 1 29 0;
#X connect 13 0 16 0;
#X connect 14 0 15 0;
#X connect 14 1 8 0;
#X connect 15 0 16 0;
#X connect 16 0 25 0;
#X connect 16 0 18 0;
#X connect 18 0 33 0;
#X connect 20 0 18 0;
#X connect 21 0 22 0;
#X connect 23 0 9 1;
#X connect 25 0 17 0;
#X connect 25 0 17 1;
#X connect 27 0 28 0;
#X connect 28 0 5 0;
#X connect 29 0 11 0;
#X connect 29 1 13 0;
#X connect 30 0 4 0;
#X connect 30 0 21 0;
#X connect 31 0 12 0;
#X connect 31 1 19 0;
#X connect 31 2 20 0;
#X connect 32 0 38 0;
#X connect 33 0 32 0;
#X connect 34 0 33 1;
#X connect 35 0 32 1;
#X connect 36 0 37 0;
#X connect 37 0 24 0;
#X connect 38 0 39 0;
#X connect 39 0 36 0;
