#N canvas 1 224 848 774 10;
#X obj 21 131 inlet gemlist;
#X obj 244 447 spigot;
#X obj 244 743 outlet gemlist;
#X obj 277 417 > 0;
#X obj 244 551 colorRGB 1 1 1;
#X obj 21 326 scaleXYZ 1 1 1;
#X obj 21 268 translateXYZ 0 0 0;
#X obj 463 160 list trim;
#X obj 11 31 cnv 15 220 80 empty \$0-cnv video1 5 10 0 14 -233017 -66577
0;
#X obj 15 86 hradio 20 1 0 2 \$0-debug-snd \$0-debug-rec debug 50 10
0 12 -191407 -258113 -1 0;
#X obj 15 61 hradio 20 1 0 2 \$0-enabled-snd \$0-enabled-rec enabled
50 10 0 12 -191407 -258113 -1 1;
#X obj 286 22 loadbang;
#X obj 286 52 symbol \$1;
#X obj 286 103 s \$0-cnv;
#X obj 286 76 prepend label;
#X obj 463 189 route video;
#X obj 512 343 s \$0-enabled-rec;
#X obj 463 366 sel 0 1;
#X obj 56 220 r \$0-placement-x;
#X obj 91 240 r \$0-placement-y;
#X obj 463 131 r kmt-greenscreen;
#X obj 325 526 r \$0-alpha;
#N canvas 693 632 450 300 alpha 0;
#X obj 12 107 line 0 20;
#X msg 128 52 0.7 1000;
#X msg 12 55 1 1000;
#X obj 12 134 s \$0-alpha;
#X msg 240 52 \$1 1000;
#X obj 240 21 r \$0-enabled-snd;
#X obj 12 21 inlet overview_off;
#X obj 128 21 inlet overview_on;
#X text 28 170 … manages alpha value. fully visible normally \, a
little transparent in oeverview \, fade in/out when activated;
#X connect 0 0 3 0;
#X connect 1 0 0 0;
#X connect 2 0 0 0;
#X connect 4 0 0 0;
#X connect 5 0 4 0;
#X connect 6 0 2 0;
#X connect 7 0 1 0;
#X restore 463 393 pd alpha;
#X obj 21 356 trigger anything anything;
#X obj 21 440 spigot;
#X obj 277 390 r \$0-alpha;
#X text 262 477 render only if visible;
#X text 41 469 render only while debugging;
#N canvas 189 642 450 300 placement 0;
#X obj 22 31 inlet overview_off;
#X obj 145 31 inlet overview_on;
#X text 38 230 … manages placement according to overview;
#X msg 22 96 0 1000;
#X obj 84 72 i \$2;
#X obj 145 71 i \$3;
#X msg 84 94 \$1 1000;
#X obj 22 151 line 0 20;
#X obj 145 151 line 0 20;
#X msg 145 94 \$1 1000;
#X obj 145 185 s \$0-placement-y;
#X obj 22 185 s \$0-placement-x;
#X connect 0 0 3 0;
#X connect 1 0 5 0;
#X connect 1 0 4 0;
#X connect 3 0 7 0;
#X connect 3 0 8 0;
#X connect 4 0 6 0;
#X connect 5 0 9 0;
#X connect 6 0 7 0;
#X connect 7 0 11 0;
#X connect 8 0 10 0;
#X connect 9 0 8 0;
#X restore 463 413 pd placement;
#X obj 21 522 separator;
#X obj 114 533 r \$0-alpha;
#X obj 21 558 colorRGB 0 1 0 1;
#X obj 21 732 text3d;
#X obj 463 218 route overview \$1;
#X text 130 131 video data;
#X text 596 127 control data;
#X obj 81 625 loadbang;
#X obj 81 661 symbol \$1;
#X obj 81 688 prepend text;
#X obj 567 320 s \$0-debug-rec;
#X obj 54 409 r \$0-debug-snd;
#X obj 48 301 r \$0-scale;
#N canvas 185 636 450 300 scale 0;
#X obj 22 31 inlet overview_off;
#X obj 145 31 inlet overview_on;
#X obj 22 151 line 0 20;
#X text 38 230 … manages scaling according to overview;
#X msg 22 96 1 1000;
#X obj 22 185 s \$0-scale;
#X msg 145 94 0.4 1000;
#X connect 0 0 4 0;
#X connect 1 0 6 0;
#X connect 2 0 5 0;
#X connect 4 0 2 0;
#X connect 6 0 2 0;
#X restore 463 435 pd scale;
#X obj 21 190 separator;
#X msg 189 715 10;
#X msg 81 715 justify left top;
#X obj 21 584 translateXYZ -3.8 3.8 0;
#X obj 244 521 separator;
#X obj 623 603 outlet control;
#X obj 503 530 r \$0-enabled-snd;
#X msg 503 558 enabled \$1;
#X obj 623 530 r \$0-debug-snd;
#X msg 623 558 debug \$1;
#X obj 512 264 route enabled debug;
#X obj 623 290 s \$0-others;
#X obj 739 531 r \$0-others;
#X connect 0 0 43 0;
#X connect 1 0 47 0;
#X connect 3 0 1 1;
#X connect 4 0 2 0;
#X connect 5 0 23 0;
#X connect 6 0 5 0;
#X connect 7 0 15 0;
#X connect 11 0 12 0;
#X connect 12 0 14 0;
#X connect 14 0 13 0;
#X connect 15 0 33 0;
#X connect 17 0 22 0;
#X connect 17 0 28 0;
#X connect 17 0 42 0;
#X connect 17 1 22 1;
#X connect 17 1 28 1;
#X connect 17 1 42 1;
#X connect 18 0 6 1;
#X connect 19 0 6 2;
#X connect 20 0 7 0;
#X connect 21 0 4 4;
#X connect 23 0 24 0;
#X connect 23 1 1 0;
#X connect 24 0 29 0;
#X connect 25 0 3 0;
#X connect 29 0 31 0;
#X connect 30 0 31 4;
#X connect 31 0 46 0;
#X connect 33 0 17 0;
#X connect 33 1 53 0;
#X connect 36 0 45 0;
#X connect 36 0 37 0;
#X connect 36 0 44 0;
#X connect 37 0 38 0;
#X connect 38 0 32 0;
#X connect 40 0 24 1;
#X connect 41 0 5 1;
#X connect 41 0 5 2;
#X connect 43 0 6 0;
#X connect 44 0 32 1;
#X connect 45 0 32 0;
#X connect 46 0 32 0;
#X connect 47 0 4 0;
#X connect 49 0 50 0;
#X connect 50 0 48 0;
#X connect 51 0 52 0;
#X connect 52 0 48 0;
#X connect 53 0 16 0;
#X connect 53 1 39 0;
#X connect 53 2 54 0;
#X connect 55 0 48 0;
#X coords 0 -1 1 1 222 102 1 10 10;
